<?xml version="1.0" standalone="no"?>
<!DOCTYPE svg PUBLIC "-//W3C//DTD SVG 20010904//EN"
 "http://www.w3.org/TR/2001/REC-SVG-20010904/DTD/svg10.dtd">
<svg version="1.0" xmlns="http://www.w3.org/2000/svg"
 width="1124.000000pt" height="1280.000000pt" viewBox="-150 -70 1104.000000 1240.000000"
 preserveAspectRatio="xMidYMid meet">
<g transform="translate(0.000000,1280.000000) scale(0.100000,-0.100000)"
fill="#000000" stroke="none">
<path d="M4996 11626 c-6 -30 -12 -37 -44 -46 -31 -8 -39 -7 -49 7 -7 9 -13
23 -13 31 0 25 -25 6 -30 -24 -4 -25 -10 -29 -43 -32 l-37 -3 0 45 c0 25 -4
46 -10 46 -5 0 -10 -17 -10 -38 0 -48 -14 -62 -61 -62 -39 0 -49 11 -49 56 0
41 -28 29 -32 -13 -3 -34 -6 -38 -41 -46 -51 -12 -67 3 -67 61 0 59 -18 44
-22 -18 -2 -37 -6 -45 -23 -45 -16 0 -21 8 -23 43 -4 56 -22 54 -22 -3 0 -39
-3 -45 -24 -51 -48 -12 -61 -2 -64 49 -4 56 -22 54 -22 -4 0 -21 -4 -39 -10
-39 -5 0 -10 20 -10 45 0 25 -4 45 -10 45 -5 0 -10 -20 -10 -44 0 -50 -16 -69
-57 -64 -26 3 -28 6 -31 56 -5 92 -20 56 -27 -65 -3 -65 -10 -127 -14 -138 -6
-13 -38 -32 -92 -54 -129 -52 -390 -189 -531 -278 -635 -404 -1087 -974 -1301
-1638 -65 -204 -93 -344 -135 -670 -6 -51 -10 -60 -29 -63 -21 -3 -22 1 -25
70 l-3 73 -32 3 -33 3 0 -75 c0 -65 -3 -77 -20 -86 -18 -10 -20 -21 -20 -140
l0 -129 32 -23 c22 -16 47 -56 84 -133 54 -113 71 -163 84 -250 53 -339 150
-680 280 -975 106 -244 328 -655 525 -975 37 -60 81 -132 97 -158 39 -67 160
-249 299 -452 108 -158 129 -198 297 -555 243 -519 307 -655 537 -1145 109
-231 249 -530 312 -665 64 -135 166 -353 228 -485 62 -132 183 -388 268 -570
85 -181 173 -369 196 -416 45 -94 48 -111 26 -149 -8 -14 -14 -49 -15 -78 0
-42 5 -58 23 -76 13 -13 28 -25 35 -27 6 -2 22 -60 34 -129 l23 -125 334 -3
c184 -1 338 1 342 5 4 5 17 67 29 138 21 124 24 131 56 158 30 25 34 34 34 76
0 26 -7 56 -15 67 -9 12 -14 44 -15 90 l0 71 376 779 c207 429 436 903 509
1054 229 475 700 1449 766 1585 45 91 116 206 240 385 97 140 209 307 249 370
40 63 88 138 105 165 103 161 295 495 392 684 42 80 79 151 83 156 16 22 122
261 163 367 97 249 190 591 212 783 4 33 13 80 20 105 16 54 151 336 165 345
6 4 10 60 10 135 0 119 -2 130 -20 140 -17 9 -20 21 -20 86 l0 75 -32 -3 -33
-3 -3 -72 c-2 -56 -6 -73 -17 -73 -17 0 -22 19 -29 115 -14 178 -74 459 -138
650 -225 666 -676 1222 -1314 1621 -135 85 -370 207 -507 264 -89 37 -83 25
-93 193 -6 121 -21 157 -26 65 -3 -50 -4 -53 -33 -56 -37 -5 -55 19 -55 72 0
30 -3 37 -10 26 -5 -8 -10 -32 -10 -52 0 -37 -1 -38 -37 -37 -74 2 -87 10 -94
59 l-6 45 -1 -41 c-3 -57 -15 -65 -93 -56 l-64 7 -3 57 -3 56 -27 -14 c-20
-10 -28 -23 -32 -51 l-5 -38 -65 -3 c-100 -5 -110 0 -110 53 0 25 -4 45 -10
45 -5 0 -10 -18 -10 -39 0 -47 -9 -55 -44 -41 -19 7 -26 17 -26 35 0 16 -6 25
-15 25 -8 0 -15 -9 -15 -20 0 -28 -19 -33 -81 -21 -30 6 -90 14 -134 17 -50 3
-94 12 -117 24 -32 17 -38 17 -49 4 -10 -13 -29 -14 -103 -8 -50 3 -97 11
-103 16 -9 7 -13 7 -13 -1 0 -8 -38 -11 -132 -10 -73 1 -173 -2 -222 -6 -80
-7 -90 -6 -102 10 -8 10 -14 13 -14 7 0 -22 -49 -34 -72 -18 -18 13 -24 13
-47 -4 -15 -11 -48 -20 -76 -22 -47 -3 -50 -1 -53 22 -6 41 -19 44 -26 6z
m-1203 -6856 c17 -25 89 -124 160 -220 183 -247 194 -262 283 -385 97 -134
255 -357 313 -443 38 -56 84 -185 382 -1064 186 -550 339 -1011 339 -1023 0
-27 -27 -52 -40 -39 -9 9 -94 189 -550 1159 -59 127 -193 412 -298 635 -105
223 -301 641 -436 929 -136 289 -249 536 -252 550 -5 24 -2 23 31 -14 21 -22
51 -60 68 -85z m3541 -357 c-240 -498 -432 -897 -839 -1738 -197 -407 -388
-804 -426 -881 -64 -134 -83 -164 -96 -150 -3 3 147 445 333 983 325 937 341
981 393 1058 125 185 310 443 577 805 166 224 214 284 222 275 2 -2 -71 -160
-164 -352z m-2539 -1055 c27 -40 75 -115 107 -165 32 -51 86 -137 119 -190 97
-153 194 -316 203 -338 12 -32 176 -833 176 -862 0 -15 -15 -44 -36 -70 -30
-37 -39 -42 -49 -31 -13 13 -585 1692 -585 1716 0 26 19 9 65 -60z m1700 -25
c-3 -16 -124 -365 -267 -778 -143 -412 -267 -769 -275 -793 -18 -51 -37 -52
-65 -2 l-20 35 105 460 105 460 59 100 c54 90 85 139 217 350 112 178 157 232
141 168z m-601 -1137 c-31 -140 -61 -261 -65 -268 -6 -10 -13 -10 -26 -2 -22
14 -28 93 -15 220 9 83 13 96 67 189 62 109 87 143 93 126 2 -6 -22 -125 -54
-265z m-450 96 l49 -87 5 -130 c4 -112 2 -132 -12 -144 -8 -7 -22 -11 -29 -8
-13 5 -108 437 -107 487 l1 25 22 -28 c12 -15 44 -67 71 -115z m266 -102 c3
-1 15 -1 28 0 21 1 22 -2 22 -57 -1 -63 -13 -139 -25 -151 -3 -4 -12 1 -19 11
-17 23 -35 22 -29 -1 4 -17 -2 -19 -51 -21 -51 -1 -56 0 -56 20 0 18 -2 20
-15 9 -26 -22 -36 1 -38 96 -2 78 0 89 15 86 9 -1 19 2 22 7 5 7 130 9 146 1z
m-146 -318 c5 -8 -21 -235 -30 -261 -9 -27 -24 5 -43 94 -21 94 -19 107 22
153 21 22 42 28 51 14z m142 -109 c37 -79 54 -127 52 -147 l-3 -31 -84 -3
c-46 -2 -88 1 -92 5 -4 4 -1 62 7 128 20 162 21 165 45 165 16 0 31 -24 75
-117z m74 90 c19 -24 21 -36 16 -80 -7 -60 -15 -83 -27 -83 -11 0 -89 156 -89
177 0 8 14 13 39 13 31 0 44 -6 61 -27z m-351 -170 c5 -21 11 -51 13 -68 3
-30 3 -30 -47 -30 -48 0 -50 1 -53 30 -2 22 6 41 28 68 17 20 35 37 40 37 5 0
14 -17 19 -37z m481 -35 c0 -39 -23 -68 -53 -68 l-30 0 6 50 c3 27 11 59 18
72 l12 22 23 -30 c13 -16 24 -37 24 -46z"/>
<path d="M5620 2074 c0 -8 5 -12 10 -9 6 3 10 10 10 16 0 5 -4 9 -10 9 -5 0
-10 -7 -10 -16z"/>
</g>
</svg>
