<?xml version="1.0" standalone="no"?>
<!DOCTYPE svg PUBLIC "-//W3C//DTD SVG 20010904//EN"
 "http://www.w3.org/TR/2001/REC-SVG-20010904/DTD/svg10.dtd">
<svg version="1.0" xmlns="http://www.w3.org/2000/svg"
 width="1280.000000pt" height="640.000000pt" viewBox="0 0 1280.000000 640.000000"
 preserveAspectRatio="xMidYMid meet">
<g transform="translate(0.000000,640.000000) scale(0.100000,-0.100000)"
fill="#000000" stroke="none">
<path d="M8125 4101 c-44 -11 -76 -29 -115 -67 l-35 -33 -50 15 c-89 28 -201
0 -259 -65 -11 -11 -27 -45 -37 -73 l-18 -53 -69 -6 c-145 -14 -232 -84 -242
-199 l-5 -55 -79 -7 c-44 -4 -103 -12 -131 -18 -70 -15 -167 -62 -192 -94 -20
-25 -26 -26 -129 -29 -147 -5 -208 -28 -286 -108 -49 -51 -62 -59 -94 -59 -28
0 -46 8 -75 34 -73 67 -274 101 -534 93 -170 -6 -243 -16 -341 -48 -67 -22
-90 -41 -96 -78 -3 -22 -11 -26 -73 -39 -91 -18 -156 -46 -191 -83 -15 -16
-34 -29 -41 -29 -8 0 -24 -11 -36 -24 -20 -21 -33 -24 -122 -28 -121 -5 -178
-29 -201 -83 -17 -41 -23 -45 -50 -35 -16 6 -23 20 -28 57 -8 66 -45 116 -113
156 -49 28 -58 38 -65 71 -11 53 -42 92 -102 131 -129 82 -327 125 -605 129
l-94 1 -11 55 c-18 87 -72 147 -181 203 -167 84 -449 110 -666 62 l-76 -17
-68 32 c-177 84 -405 73 -561 -28 -93 -60 -147 -132 -173 -230 l-12 -42 -87 0
c-156 0 -262 -41 -364 -142 -52 -53 -62 -58 -101 -58 -95 0 -225 -51 -298
-117 -56 -50 -81 -103 -81 -172 -1 -53 -3 -58 -48 -103 -35 -34 -51 -60 -62
-100 -13 -47 -18 -53 -39 -50 -13 1 -67 3 -119 3 -184 2 -320 -81 -320 -193 0
-42 0 -42 -105 -53 -87 -10 -181 -42 -218 -75 l-32 -28 25 -28 c14 -14 44 -35
68 -46 110 -49 38 -48 2391 -48 l2198 0 44 23 c52 28 85 72 94 127 5 28 18 49
46 75 47 42 69 44 114 9 85 -64 268 -84 401 -43 66 20 69 20 118 3 37 -13 88
-18 190 -20 96 -2 150 -8 177 -18 110 -44 268 -40 376 9 43 19 59 22 85 14 50
-14 188 -11 245 6 27 8 67 29 88 45 24 19 45 28 54 24 40 -16 103 -16 146 0
45 18 105 75 105 101 0 15 13 20 75 31 22 4 64 15 93 26 50 19 56 19 115 4 87
-22 207 -20 292 4 l70 19 65 -26 c54 -22 86 -27 184 -31 137 -5 202 6 293 50
49 24 65 28 81 19 11 -6 50 -15 86 -20 87 -12 185 2 256 38 l57 28 89 -19 c75
-16 119 -18 286 -15 l198 5 -8 -27 c-34 -121 42 -239 203 -316 122 -58 181
-70 360 -69 150 1 165 3 248 31 l89 30 76 -38 c178 -88 431 -92 606 -11 l61
28 65 -17 c85 -23 254 -25 335 -4 33 9 84 27 113 40 52 24 53 24 95 6 141 -60
328 -52 456 20 l54 31 71 -21 c109 -31 181 -36 276 -17 157 32 242 99 259 205
6 33 9 35 67 47 75 15 126 47 154 96 l21 37 -21 41 c-26 51 -85 90 -168 110
-58 14 -67 19 -75 46 -21 65 -105 126 -234 170 -124 42 -211 55 -388 61 -163
4 -172 6 -225 33 -73 38 -203 75 -317 90 -92 13 -363 9 -410 -5 -19 -6 -26 -1
-40 26 -96 177 -350 235 -525 119 -40 -27 -99 -97 -111 -133 -2 -7 -25 -2 -65
16 -209 94 -457 69 -588 -59 l-55 -53 -57 15 c-31 8 -88 18 -127 21 -58 5 -75
10 -100 33 -58 54 -92 65 -192 65 l-93 -1 0 51 c0 90 -61 152 -176 178 -49 12
-58 17 -55 33 16 87 13 111 -18 146 -51 59 -119 82 -234 82 -90 1 -98 2 -102
21 -2 11 -6 32 -10 48 -3 15 -23 45 -45 67 -58 58 -156 82 -245 61z"/>
</g>
</svg>
