<?xml version="1.0" standalone="no"?>
<!DOCTYPE svg PUBLIC "-//W3C//DTD SVG 20010904//EN"
 "http://www.w3.org/TR/2001/REC-SVG-20010904/DTD/svg10.dtd">
<svg version="1.0" xmlns="http://www.w3.org/2000/svg"
 width="1280.000000pt" height="704.000000pt" viewBox="0 0 1280.000000 704.000000"
 preserveAspectRatio="xMidYMid meet">
<g transform="translate(0.000000,704.000000) scale(0.100000,-0.100000)"
fill="#000000" stroke="none">
<path d="M11010 7021 c-121 -34 -137 -46 -124 -97 3 -13 2 -24 -2 -24 -126 -5
-142 -7 -171 -28 -17 -12 -42 -22 -55 -22 -52 0 -99 -21 -118 -53 -27 -43 -25
-70 6 -106 l26 -31 -18 -52 c-9 -29 -20 -55 -23 -58 -3 -3 -22 -27 -41 -55
l-35 -50 0 -125 c0 -76 5 -143 14 -172 l13 -46 -217 -471 c-120 -259 -223
-471 -230 -471 -7 0 -18 -6 -25 -14 -6 -8 -17 -13 -24 -10 -8 3 -23 -16 -39
-50 -24 -50 -30 -56 -57 -56 -32 0 -70 -30 -70 -55 0 -8 -4 -23 -10 -33 -53
-94 -284 -577 -301 -631 -21 -65 -25 -70 -46 -65 -13 4 -30 0 -39 -7 -14 -11
-18 -10 -30 6 -8 10 -14 25 -14 33 0 7 -18 192 -40 410 -23 218 -47 469 -56
557 -8 88 -19 193 -24 233 -6 40 -10 89 -10 107 0 31 3 35 35 41 73 13 74 64
1 64 -40 0 -46 3 -52 24 -3 14 1 34 9 48 9 12 19 44 22 71 4 26 16 59 27 73
11 14 21 36 21 48 0 28 -39 147 -64 197 -94 187 -529 291 -1314 313 -142 4
-156 6 -253 41 l-104 36 -226 -11 c-125 -6 -240 -13 -257 -15 -16 -3 -120 -12
-230 -20 -340 -26 -622 -61 -890 -110 -248 -46 -241 -46 -270 -13 -17 18 -35
28 -54 28 -35 0 -47 -14 -56 -61 -5 -25 -15 -41 -37 -54 l-31 -18 6 34 c21
116 57 439 55 482 -4 69 -12 39 -32 -133 -8 -74 -32 -224 -52 -333 -33 -183
-35 -199 -20 -216 9 -10 16 -28 16 -42 0 -16 14 -36 42 -60 l42 -36 -34 -184
c-18 -101 -37 -191 -41 -200 -6 -12 -29 -17 -98 -21 -102 -6 -142 -24 -178
-78 -13 -18 -23 -48 -23 -66 0 -25 -5 -34 -16 -34 -14 0 -15 10 -9 78 9 104
-4 134 -90 205 -49 41 -81 59 -119 67 -85 19 -86 20 -86 45 0 47 -75 71 -135
43 -14 -6 -35 -26 -46 -45 -11 -18 -25 -33 -31 -33 -5 0 -23 -9 -38 -20 -27
-19 -28 -21 -14 -50 9 -16 22 -34 31 -39 14 -7 14 -22 3 -140 -12 -122 -11
-133 5 -151 28 -30 76 -35 122 -12 22 11 45 27 51 34 25 31 51 181 52 297 l0
54 43 -7 c52 -9 115 -45 173 -100 43 -42 44 -43 44 -109 0 -45 -6 -78 -19
-104 -10 -21 -25 -69 -31 -107 -11 -57 -10 -70 1 -77 21 -13 57 -11 62 4 2 6
8 9 12 5 4 -4 3 -14 -3 -21 -10 -12 -56 -245 -92 -462 l-11 -70 -74 -2 c-94
-2 -152 -18 -166 -45 -20 -37 6 -276 40 -360 9 -24 16 -28 53 -28 68 0 72 -6
59 -88 -6 -39 -11 -106 -11 -149 0 -43 -4 -84 -9 -91 -9 -14 -169 -72 -199
-72 -15 0 -16 8 -10 73 12 109 10 116 -21 148 -26 26 -36 29 -103 30 -41 2
-83 -3 -96 -10 -31 -17 -27 -1 13 50 37 46 46 75 20 65 -8 -3 -15 -1 -15 4 0
6 8 10 18 10 14 0 14 2 3 9 -10 7 -23 -3 -47 -38 -46 -63 -61 -92 -29 -56 30
33 30 26 0 -22 -11 -17 -26 -31 -35 -30 -76 4 -147 -51 -136 -107 5 -22 0 -39
-19 -68 -14 -21 -30 -38 -37 -38 -6 0 -8 -3 -5 -7 4 -3 -1 -16 -12 -27 -19
-20 -66 -86 -152 -211 -23 -33 -52 -68 -66 -78 -28 -23 -83 -100 -83 -119 0
-18 -179 -264 -190 -261 -5 2 -7 -4 -4 -12 4 -10 0 -15 -10 -15 -9 0 -16 -6
-14 -12 2 -12 -20 -46 -110 -166 l-25 -34 -21 53 c-27 69 -54 81 -130 55 -49
-17 -55 -17 -78 -2 -22 14 -29 15 -64 2 -75 -27 -143 -66 -159 -89 -14 -22
-13 -27 10 -73 16 -32 25 -66 25 -96 l0 -48 -43 0 c-23 0 -67 -7 -97 -15 -38
-10 -147 -18 -350 -25 -162 -5 -338 -12 -390 -15 -52 -3 -232 -10 -400 -16
-168 -5 -368 -12 -445 -15 -159 -6 -148 -6 -196 2 l-36 6 -47 -106 c-51 -114
-49 -100 -71 -421 -12 -177 -9 -170 -69 -199 -41 -20 -107 -81 -298 -276 -135
-138 -249 -250 -253 -250 -4 0 -18 9 -32 20 -14 11 -33 20 -42 20 -9 0 -68
-55 -132 -122 l-116 -122 -44 17 c-53 20 -119 23 -119 4 0 -7 23 -27 51 -44
l51 -31 -26 -17 c-14 -10 -26 -23 -26 -30 0 -7 35 -41 78 -74 42 -34 86 -70
97 -80 11 -10 93 -77 183 -149 176 -141 185 -145 369 -187 58 -13 107 -25 109
-27 2 -3 -23 -17 -56 -33 -33 -16 -60 -32 -60 -36 0 -4 12 -10 28 -13 15 -4
96 -38 179 -77 l153 -71 102 22 c83 18 105 19 124 9 19 -9 45 -9 128 0 148 18
467 6 510 -19 40 -23 125 -47 200 -56 40 -4 64 -13 75 -26 9 -11 36 -35 60
-54 l44 -34 -64 0 c-35 0 -158 -4 -274 -9 -115 -6 -383 -15 -595 -21 -212 -6
-393 -16 -402 -21 -10 -5 -41 -10 -70 -10 -53 -2 -52 -2 17 -10 86 -10 468
-26 1045 -44 102 -3 302 -10 445 -15 983 -36 2053 -45 2445 -21 102 6 327 16
500 22 342 11 387 16 382 41 -2 11 7 18 27 23 16 3 235 3 487 0 539 -7 1024 7
1224 35 227 32 158 29 1455 66 630 17 900 29 1015 43 47 5 129 15 183 22 53 6
100 16 103 20 3 5 -52 9 -123 9 -123 0 -300 14 -310 24 -3 2 -7 32 -10 66 -6
67 5 100 43 125 20 13 27 13 58 0 49 -21 54 -19 76 17 25 42 25 79 0 128 -26
50 -25 76 3 125 21 37 26 40 70 43 l47 3 15 51 c20 70 20 74 -20 128 -19 26
-35 50 -35 54 0 3 135 6 300 6 297 0 300 0 300 21 0 25 -18 60 -39 75 -11 9
-13 15 -4 25 14 18 18 146 8 272 -7 79 -5 101 5 107 11 7 14 49 12 206 -1 108
-6 201 -11 208 -18 23 -21 128 -26 864 -2 414 -7 757 -10 762 -3 5 -19 8 -36
6 -29 -3 -30 -2 -23 28 4 17 20 71 35 120 16 49 29 96 29 103 0 8 15 67 34
131 33 110 43 145 83 285 9 31 20 57 24 57 5 0 6 6 3 14 -3 8 11 64 30 125 20
61 36 116 36 122 0 27 54 182 57 164 4 -20 22 -69 49 -132 8 -17 14 -34 14
-38 0 -7 104 -275 126 -325 9 -19 22 -55 31 -80 8 -25 26 -69 39 -98 13 -29
24 -55 24 -58 0 -3 8 -24 19 -47 10 -23 37 -89 59 -147 22 -58 48 -119 56
-135 9 -17 16 -34 16 -38 0 -7 153 -366 184 -432 91 -191 140 -314 140 -347
-2 -44 12 -52 71 -38 22 5 63 10 91 10 l51 0 7 -40 c4 -26 14 -43 27 -51 18
-9 21 -17 16 -51 -4 -32 0 -49 18 -77 24 -38 50 -109 42 -117 -5 -6 -143 53
-220 94 -68 36 -204 141 -266 206 l-44 45 17 58 c21 69 18 78 -50 184 -78 123
-112 197 -125 276 -11 66 -14 73 -35 73 -12 0 -25 -3 -27 -7 -3 -5 -10 -60
-17 -123 -13 -133 -17 -150 -34 -150 -16 0 -47 99 -55 175 -6 55 -8 60 -31 60
-28 0 -35 -21 -46 -150 l-7 -80 -14 34 c-8 19 -17 57 -19 85 -9 84 -13 96 -34
96 -26 0 -40 -36 -40 -99 0 -63 -11 -141 -20 -141 -9 0 -39 99 -50 167 -11 65
-20 78 -48 69 -19 -6 -21 -17 -25 -184 -3 -97 -8 -190 -11 -207 -22 -116 -36
-239 -27 -244 6 -4 1 -59 -15 -151 -29 -171 -32 -318 -9 -416 46 -200 186
-367 365 -435 93 -35 179 -42 295 -24 58 9 108 14 113 12 22 -15 311 -45 409
-44 109 2 112 3 142 31 17 16 33 38 37 48 8 26 25 23 84 -17 52 -35 83 -42
108 -26 7 4 28 50 45 102 l32 94 45 7 c25 4 62 10 84 14 22 4 54 1 76 -6 57
-19 86 0 132 85 20 39 38 79 38 90 0 12 4 25 8 30 14 16 32 91 38 157 6 64
-14 138 -36 138 -6 0 -10 6 -10 13 0 12 -106 127 -118 127 -4 0 -19 11 -34 24
-29 26 -24 9 -214 686 -117 418 -110 386 -89 410 18 20 17 24 -9 123 -16 56
-39 140 -53 187 -43 147 -61 211 -103 365 -22 83 -44 159 -49 170 -5 11 -17
52 -26 90 -9 39 -47 180 -85 315 -90 325 -98 365 -76 389 24 26 19 116 -9 178
-15 31 -19 50 -12 55 11 7 -17 93 -60 185 -31 64 -90 120 -137 128 -20 4 -37
14 -40 24 -2 9 -17 61 -32 116 -37 139 -121 401 -145 453 -11 23 -30 71 -43
105 -45 116 -67 157 -107 197 -40 39 -42 40 -114 40 -66 0 -74 2 -89 25 -9 14
-16 45 -16 73 l0 50 55 22 c31 12 58 26 61 31 9 16 -129 8 -196 -10z m-398
-270 c-23 -43 -28 -47 -39 -32 -7 9 -13 22 -13 29 0 18 37 52 59 52 17 0 17
-3 -7 -49z m215 27 c-2 -24 -20 -48 -35 -48 -11 0 -75 -31 -82 -40 -9 -12 -60
-21 -60 -11 0 39 74 102 135 115 40 8 45 6 42 -16z m73 -2 c0 -8 -4 -18 -10
-21 -5 -3 -10 3 -10 14 0 12 5 21 10 21 6 0 10 -6 10 -14z m-354 -638 c-9 -24
-23 -69 -31 -101 -8 -31 -31 -92 -52 -135 -20 -42 -107 -230 -194 -417 -98
-212 -163 -341 -173 -343 -9 -2 -16 2 -16 10 0 12 123 282 382 840 51 109 94
195 96 193 3 -3 -2 -24 -12 -47z m14 -336 l12 -54 -35 -36 c-57 -59 -81 -123
-81 -217 0 -44 5 -89 12 -101 18 -34 -28 -108 -138 -224 -50 -52 -148 -168
-159 -188 -14 -26 -23 -8 -11 22 13 34 13 89 0 102 -9 9 71 186 291 644 82
173 81 172 109 52z m1165 0 c24 -28 89 -171 82 -179 -3 -2 -23 31 -46 74 -23
43 -58 93 -79 112 -37 33 -37 34 -9 27 16 -4 39 -19 52 -34z m-1163 -266 c-6
-12 -13 -28 -15 -36 -3 -8 -6 -1 -6 16 -1 17 5 46 11 65 l13 34 3 -29 c2 -16
-1 -39 -6 -50z m1267 27 c1 -7 -3 -13 -9 -13 -5 0 -10 15 -9 33 0 27 2 29 9
12 5 -11 9 -26 9 -32z m-6339 -84 c0 -12 -14 -94 -31 -183 -171 -896 -155
-826 -179 -826 -20 0 -34 -37 -16 -44 6 -2 -19 -5 -56 -5 -72 -1 -90 10 -64
38 15 17 15 20 2 34 -26 26 -22 91 26 372 25 149 49 308 53 355 3 47 10 99 15
115 5 17 12 41 14 55 3 14 18 41 34 60 28 33 34 35 108 41 44 3 82 6 87 7 4 1
7 -8 7 -19z m6380 -79 c0 -5 -5 -10 -11 -10 -5 0 -7 5 -4 10 3 6 8 10 11 10 2
0 4 -4 4 -10z m-1378 -72 c-7 -7 -12 -8 -12 -2 0 14 12 26 19 19 2 -3 -1 -11
-7 -17z m-62 -112 c0 -3 -4 -8 -10 -11 -5 -3 -10 -1 -10 4 0 6 5 11 10 11 6 0
10 -2 10 -4z m-540 -253 c-9 -17 -39 -82 -129 -277 -23 -49 -41 -95 -41 -103
0 -7 -6 -16 -14 -19 -8 -3 -17 -17 -21 -31 -3 -14 -25 -67 -49 -117 -24 -50
-54 -116 -66 -146 -24 -56 -50 -101 -50 -86 0 17 23 91 32 100 4 6 8 16 8 24
0 8 60 135 134 282 73 148 142 290 152 317 9 26 22 54 27 61 14 18 29 14 17
-5z m-80 -79 c0 -8 -5 -12 -10 -9 -6 4 -8 11 -5 16 9 14 15 11 15 -7z m-4602
-540 c22 -5 29 -10 25 -22 -4 -8 2 -21 12 -28 17 -13 17 -20 7 -108 -7 -52
-12 -118 -12 -146 0 -69 -12 -90 -55 -90 -18 0 -35 -4 -37 -9 -1 -5 -29 -12
-60 -16 l-56 -7 3 38 c3 22 7 77 11 124 8 119 11 151 16 154 1 1 17 6 33 12
27 8 30 14 33 57 3 51 10 55 80 41z m-668 -189 c-7 -9 -15 -13 -18 -10 -3 2 1
11 8 20 7 9 15 13 18 10 3 -2 -1 -11 -8 -20z m7458 -55 c11 -41 32 -118 47
-170 15 -52 37 -132 48 -177 16 -62 25 -83 37 -83 27 0 45 -30 63 -105 10 -38
27 -99 38 -135 26 -88 189 -661 189 -667 0 -8 -43 20 -78 51 -21 18 -45 36
-56 40 -15 5 -17 13 -13 41 3 18 2 35 -2 37 -4 2 -19 49 -34 104 -21 80 -24
109 -17 135 9 29 7 37 -18 64 -24 24 -31 46 -42 115 -7 47 -18 94 -25 105 -7
11 -15 51 -20 89 -4 38 -11 79 -15 90 -17 43 -109 417 -126 516 -11 58 3 30
24 -50z m-2538 32 c0 -33 -4 -39 -30 -49 l-30 -11 0 42 c0 49 5 56 37 56 20 0
23 -5 23 -38z m-10 -115 c0 -2 -10 -12 -21 -23 -22 -19 -22 -19 -10 4 10 18
31 31 31 19z m-4958 -109 c-7 -7 -12 -8 -12 -2 0 6 3 14 7 17 3 4 9 5 12 2 2
-3 -1 -11 -7 -17z m-96 -156 c-18 -16 -18 -16 -6 6 6 13 14 21 18 18 3 -4 -2
-14 -12 -24z m7933 -312 c0 -9 -4 -8 -9 5 -5 11 -9 27 -9 35 0 9 4 8 9 -5 5
-11 9 -27 9 -35z m8 -42 c-3 -8 -6 -5 -6 6 -1 11 2 17 5 13 3 -3 4 -12 1 -19z
m22 -68 c0 -9 -4 -8 -9 5 -5 11 -9 27 -9 35 0 9 4 8 9 -5 5 -11 9 -27 9 -35z
m20 -70 c0 -9 -4 -8 -9 5 -5 11 -9 27 -9 35 0 9 4 8 9 -5 5 -11 9 -27 9 -35z
m90 -313 c45 -158 81 -291 81 -295 -1 -27 -29 60 -95 298 -70 257 -81 299 -71
289 2 -2 40 -133 85 -292z m-8614 -195 c-17 -32 -32 -48 -45 -48 -28 0 -26 8
23 72 49 67 63 52 22 -24z m8465 -697 c0 -8 -13 -21 -30 -30 -36 -18 -37 -14
-8 25 21 29 38 31 38 5z m-4260 -852 c-20 -28 -20 -34 -10 -95 11 -64 15 -69
81 -133 38 -37 69 -72 69 -78 0 -6 -12 -42 -26 -78 l-26 -67 26 -59 c28 -61
42 -76 120 -125 l48 -31 -6 -56 c-6 -54 -5 -58 26 -88 18 -17 48 -40 67 -51
l33 -20 -88 2 c-49 2 -270 4 -492 5 -374 1 -403 2 -409 19 -3 9 -15 29 -25 44
-50 72 15 158 119 158 50 0 50 0 67 43 22 58 20 85 -9 132 -45 73 -29 115 60
166 57 32 64 47 67 139 1 34 -41 132 -62 145 -5 3 -10 13 -10 21 0 12 30 14
184 14 152 0 186 3 196 15 22 27 23 8 0 -22z m2140 2 c0 -33 -2 -35 -35 -35
-43 0 -46 20 -7 49 37 28 42 26 42 -14z m-4481 -863 l62 -28 -90 -11 c-65 -7
-97 -16 -112 -29 -18 -16 -42 -20 -165 -24 -79 -3 -144 -2 -144 3 0 4 10 7 23
7 45 1 317 76 334 92 24 22 21 22 92 -10z m-844 -56 c26 -12 42 -12 128 1 97
14 99 14 145 -9 l47 -23 -55 -7 c-84 -9 -510 -9 -510 1 0 5 7 14 15 21 8 7 15
19 15 26 0 19 173 11 215 -10z m-1910 -45 l40 -18 -135 -7 c-74 -4 -143 -10
-154 -13 -12 -3 -17 -1 -14 8 3 8 18 15 34 16 16 1 55 4 87 6 32 3 63 9 70 16
15 15 25 14 72 -8z"/>
<path d="M10096 5163 c-6 -14 -5 -15 5 -6 7 7 10 15 7 18 -3 3 -9 -2 -12 -12z"/>
<path d="M10840 4464 c0 -8 5 -12 10 -9 6 4 8 11 5 16 -9 14 -15 11 -15 -7z"/>
</g>
</svg>
