<?xml version="1.0" encoding="UTF-8"?>
<svg xmlns="http://www.w3.org/2000/svg" xmlns:xlink="http://www.w3.org/1999/xlink" width="400pt" height="200pt" viewBox="0 0 400 200" version="1.1">
<g id="surface1">
<path style=" stroke:none;fill-rule:nonzero;fill:rgb(0%,0%,0%);fill-opacity:1;" d="M 324.6875 20.59375 C 319.78125 21.03125 315.625 21.5 315.4375 21.625 C 315.25 21.75 314.28125 23.21875 313.28125 24.90625 C 300.03125 47.21875 289.65625 63.3125 286.59375 66.1875 C 285.625 67.125 281.9375 68.875 276.59375 70.96875 L 272.6875 72.46875 L 269.25 71.5625 C 262.71875 69.84375 250.15625 69.46875 244.9375 70.875 C 242.5 71.53125 237.84375 73.28125 237.40625 73.71875 C 237.28125 73.84375 239.96875 75.0625 243.34375 76.40625 C 246.75 77.75 250.03125 79.0625 250.625 79.3125 L 251.71875 79.78125 L 247.65625 81.15625 C 240.4375 83.59375 231.78125 85.4375 221.1875 86.71875 L 216.9375 87.25 L 211.65625 85.15625 C 202.53125 81.5 200.09375 80.78125 191.90625 79.1875 C 189.78125 78.78125 184.3125 77.25 179.71875 75.75 C 168.1875 72.03125 162.6875 70.25 156.96875 68.40625 C 154.25 67.53125 149.875 66.125 147.28125 65.28125 C 144.65625 64.4375 140.3125 63.03125 137.65625 62.1875 C 135 61.3125 130.625 59.90625 127.96875 59.0625 C 125.3125 58.1875 120.96875 56.8125 118.375 55.96875 C 115.75 55.125 111.375 53.71875 108.6875 52.84375 C 98.5625 49.59375 93.28125 47.875 67.34375 39.46875 L 40.78125 30.875 L 28.75 31.375 C 12.125 32.125 4.90625 32.84375 2.4375 34.09375 C 0.25 35.21875 -0.625 37.15625 0.59375 38.25 C 1.3125 38.90625 7.625 41.53125 27.1875 49.375 C 46.25 57 60.75 62.46875 75.21875 67.5 L 79.03125 68.8125 L 85 77.125 C 88.25 81.6875 90.90625 85.4375 90.84375 85.46875 C 90.8125 85.5 89.5 85.375 87.96875 85.21875 C 84.5625 84.84375 80.375 85.4375 77.21875 86.71875 C 68.8125 90.15625 63.0625 98.21875 60.71875 109.875 C 59.96875 113.71875 59.9375 123.84375 60.71875 128.28125 C 64.21875 148.6875 77.40625 166.28125 93.15625 171.5625 L 95.78125 172.4375 L 95.9375 174.21875 C 96.09375 175.78125 96.25 176.125 97.15625 176.90625 C 98.65625 178.125 101.625 178.75 106.15625 178.75 C 112.03125 178.75 114.28125 178 121.3125 173.84375 C 124.125 172.1875 125.5 171.15625 125.84375 170.53125 C 126.5 169.25 126.6875 166.65625 126.3125 164.78125 C 126.03125 163.5 126.0625 162.96875 126.4375 161.9375 L 126.9375 160.6875 L 130.125 160.46875 C 138.75 159.90625 148.34375 158.4375 155.6875 156.5625 C 158.3125 155.90625 167.03125 153.15625 175.09375 150.46875 C 183.125 147.75 189.875 145.625 190.09375 145.71875 C 190.28125 145.78125 193.625 150.34375 197.46875 155.78125 L 204.46875 165.71875 L 203.625 168.15625 C 202.15625 172.5625 202.6875 175.65625 205.375 177.96875 C 207.875 180.09375 211.9375 180.6875 216.21875 179.5625 C 218.5625 178.96875 223.40625 176.75 225.40625 175.375 C 227.5 173.90625 230 171.15625 231.4375 168.71875 C 232.90625 166.25 234.53125 161.625 234.84375 159.03125 L 235.0625 157.25 L 233.40625 156.90625 C 230.125 156.1875 225.96875 155.9375 223.15625 156.25 C 219.625 156.65625 217.15625 157.46875 213.15625 159.5625 C 211.375 160.5 209.8125 161.15625 209.6875 161.03125 C 209.28125 160.59375 199.625 142.46875 199.71875 142.375 C 199.78125 142.34375 203.375 140.71875 207.65625 138.75 C 215.40625 135.21875 230.15625 128.5 245.84375 121.3125 L 254.0625 117.5625 L 265.6875 120.15625 C 277.9375 122.90625 309 129.84375 341.09375 137.0625 L 360.15625 141.3125 L 364.0625 140.9375 C 375.21875 139.84375 385.4375 137.28125 393.28125 133.59375 C 396.40625 132.125 399.125 130.21875 399.75 129.09375 C 400.09375 128.46875 400.0625 128.3125 399.46875 127.8125 C 398.125 126.71875 371.5625 120.6875 329.53125 111.90625 C 307.21875 107.25 294.6875 104.625 290.875 103.84375 C 288.5 103.375 286.6875 102.90625 286.8125 102.78125 C 286.9375 102.6875 291.25 100.9375 296.40625 98.90625 L 305.78125 95.21875 L 307.96875 95.59375 C 309.1875 95.78125 318.9375 97.59375 329.65625 99.59375 L 349.15625 103.25 L 359.03125 100.78125 C 370.625 97.90625 371.03125 97.8125 370.875 97.65625 C 370.625 97.40625 329.8125 84.6875 322.8125 82.6875 L 320.15625 81.9375 L 319.96875 73.5 L 327.5 47.0625 C 331.625 32.5 335 20.40625 335 20.15625 C 335 19.59375 335.875 19.5625 324.6875 20.59375 Z M 124.53125 83.96875 C 128.15625 85.125 131.15625 86.125 131.21875 86.15625 C 131.3125 86.21875 122.03125 103.65625 121.71875 104 C 121.6875 104.0625 120.9375 104.375 120.0625 104.6875 L 118.5 105.28125 L 116.46875 102.71875 C 113.875 99.4375 111.15625 96.65625 107.78125 93.84375 C 105.46875 91.9375 104.0625 90.25 98.28125 82.59375 C 94.53125 77.65625 91.34375 73.4375 91.1875 73.21875 C 91.03125 73.03125 97 74.875 104.4375 77.34375 C 111.875 79.8125 120.9375 82.78125 124.53125 83.96875 Z M 90.0625 86.28125 C 91.78125 86.625 91.875 86.6875 93.5625 89.0625 C 94.53125 90.40625 95.3125 91.59375 95.3125 91.65625 C 95.3125 91.75 94.28125 91.53125 93.0625 91.1875 C 80.875 87.90625 70 94.5 65.84375 107.65625 C 63.875 113.96875 63.53125 122.78125 64.96875 130.03125 C 67.9375 144.875 76.75 157.9375 88 164.25 C 90.375 165.5625 94.34375 167.0625 96.34375 167.34375 C 97.15625 167.46875 97.8125 167.625 97.8125 167.6875 C 97.8125 167.78125 96.40625 170.84375 96.0625 171.5 C 96.03125 171.5625 95.3125 171.40625 94.46875 171.15625 C 78.25 166.3125 64.53125 148.09375 61.40625 127.1875 C 60.71875 122.78125 60.71875 114.75 61.375 111.09375 C 63.40625 99.625 68.34375 91.90625 76.03125 88.125 C 80.09375 86.15625 85.71875 85.40625 90.0625 86.28125 Z M 93.84375 92.1875 L 96.28125 92.90625 L 98.625 96.15625 C 99.875 97.9375 100.84375 99.375 100.71875 99.375 C 100.625 99.375 99.9375 99.03125 99.1875 98.59375 C 95 96.125 87.9375 95 83.75 96.09375 C 77.71875 97.65625 73 102.03125 70.4375 108.40625 C 68.6875 112.71875 68.3125 115.03125 68.28125 121.40625 C 68.28125 128.03125 68.625 130.21875 70.5 135.9375 C 74.84375 149.09375 84.53125 159.40625 95.03125 162 C 97.3125 162.5625 101.625 162.65625 103.71875 162.15625 C 105.65625 161.71875 108.1875 160.46875 109.96875 159.0625 L 111.53125 157.84375 L 113.65625 158.59375 C 114.8125 159 115.5625 159.40625 115.3125 159.5 C 115.0625 159.5625 113.21875 160 111.25 160.4375 C 106.96875 161.40625 102 163.6875 99.90625 165.59375 C 99.15625 166.3125 98.3125 166.875 98.0625 166.875 C 96.96875 166.875 92.65625 165.5625 90.5625 164.59375 C 72.59375 156.3125 60.875 130.375 65.96875 110.15625 C 68.4375 100.375 74.0625 93.875 81.875 91.71875 C 84.5 91 90.6875 91.25 93.84375 92.1875 Z M 112.3125 99.09375 C 115.0625 102.0625 117.5625 105.28125 117.34375 105.625 C 116.75 106.59375 115.8125 105.71875 112 100.6875 C 109.8125 97.8125 107.875 95.25 107.6875 95 C 107 94.0625 110.625 97.25 112.3125 99.09375 Z M 93.4375 97.21875 C 96.09375 97.9375 99.53125 99.5 101.4375 100.875 C 102.71875 101.8125 108.21875 109.15625 107.90625 109.5 C 107.4375 109.96875 106.65625 109.5625 104.9375 107.96875 C 92.875 96.78125 78.15625 99.1875 73.625 113.09375 C 72.5 116.5 72.1875 118.6875 72.1875 122.78125 C 72.1875 128.6875 73.4375 134.28125 75.9375 139.53125 C 82.28125 152.8125 94.84375 160.28125 104.1875 156.25 L 105.625 155.65625 L 107.71875 156.4375 C 108.90625 156.875 110.03125 157.28125 110.28125 157.375 C 110.875 157.5625 108.78125 159.1875 106.40625 160.3125 C 97.34375 164.625 84.8125 159.03125 76.8125 147.0625 C 68.25 134.21875 66.375 117.75 72.25 106.46875 C 76.5625 98.21875 84.3125 94.84375 93.4375 97.21875 Z M 92.59375 102.0625 C 95.28125 102.65625 98.84375 104.25 101.0625 105.84375 C 102.9375 107.1875 105.9375 109.75 105.9375 110.03125 C 105.9375 110.15625 105.21875 110.53125 104.34375 110.90625 L 102.75 111.5625 L 101.46875 110.5 C 100.75 109.9375 99.375 109.03125 98.4375 108.5 C 88.59375 102.96875 79.125 107.34375 76.71875 118.5625 C 76 121.8125 76.21875 128.40625 77.15625 132.03125 C 78 135.21875 80.75 140.78125 82.84375 143.5625 C 86.53125 148.375 92.875 152.1875 97.34375 152.1875 C 98.53125 152.1875 104.59375 155.125 104.0625 155.46875 C 103.25 155.96875 100.375 156.5625 98.75 156.5625 C 89.53125 156.5625 79.4375 147.59375 75.15625 135.625 C 70.3125 122.03125 73.625 107.4375 82.5625 103.1875 C 85.90625 101.5625 88.90625 101.25 92.59375 102.0625 Z M 92.8125 107.1875 C 93.75 107.375 95.28125 107.875 96.21875 108.28125 C 97.96875 109.09375 101.875 111.5625 101.875 111.875 C 101.875 111.96875 101.0625 112.375 100.03125 112.78125 L 98.21875 113.5 L 96.90625 112.84375 C 89.65625 109.125 82.65625 112.5625 80.65625 120.78125 C 80.0625 123.21875 80.1875 128.1875 80.9375 131.09375 C 81.8125 134.625 83.96875 138.8125 86.25 141.40625 C 89.25 144.84375 91.84375 147.40625 94.3125 149.40625 C 95.5625 150.40625 96.40625 151.25 96.15625 151.25 C 94.84375 151.25 91.3125 149.8125 89.28125 148.4375 C 83.8125 144.78125 79.75 138.625 77.78125 131.0625 C 76.84375 127.4375 76.75 121.21875 77.59375 118.125 C 79.84375 109.78125 85.4375 105.78125 92.8125 107.1875 Z M 95.59375 113.15625 L 97.3125 113.9375 L 94.5625 115.25 C 93.0625 115.96875 91.53125 116.5625 91.21875 116.5625 C 90.25 116.5625 88.375 117.46875 87.34375 118.40625 C 86.84375 118.875 85.75 119.65625 84.9375 120.125 C 83.09375 121.15625 82.9375 121.75 83.03125 127.65625 C 83.09375 131.84375 83.15625 132.1875 84.34375 135.625 C 85.03125 137.59375 85.53125 139.25 85.5 139.28125 C 85.46875 139.3125 84.9375 138.46875 84.3125 137.40625 C 81.25 132.03125 80.25 125.96875 81.53125 120.84375 C 82.28125 117.90625 82.8125 116.875 84.46875 115.09375 C 86.5625 112.8125 88.15625 112.1875 91.5625 112.28125 C 93.28125 112.34375 94.34375 112.5625 95.59375 113.15625 Z M 126.25 160.5625 C 126.25 160.71875 126.0625 161.0625 125.875 161.34375 C 125.5 161.78125 125.40625 161.78125 124.90625 161.0625 L 124.34375 160.3125 L 125.3125 160.3125 C 125.8125 160.3125 126.25 160.4375 126.25 160.5625 Z M 126.25 160.5625 "/>
</g>
</svg>
