<?xml version="1.0" standalone="no"?>
<!DOCTYPE svg PUBLIC "-//W3C//DTD SVG 20010904//EN"
 "http://www.w3.org/TR/2001/REC-SVG-20010904/DTD/svg10.dtd">
<svg version="1.0" xmlns="http://www.w3.org/2000/svg"
 width="1280.000000pt" height="640.000000pt" viewBox="0 0 1280.000000 640.000000"
 preserveAspectRatio="xMidYMid meet">
<g transform="translate(0.000000,640.000000) scale(0.100000,-0.100000)"
fill="#000000" stroke="none">
<path d="M2982 6119 c-78 -39 -122 -115 -122 -213 0 -107 76 -196 186 -220
l30 -7 67 -332 c212 -1064 249 -1236 288 -1352 42 -127 108 -261 160 -326 17
-22 30 -42 27 -44 -2 -2 -112 13 -243 35 -186 30 -312 43 -560 60 -184 12
-386 31 -475 45 -85 14 -279 45 -430 69 -1292 210 -1646 266 -1689 266 -58 0
-127 -23 -160 -53 -54 -50 -75 -144 -47 -210 18 -44 87 -102 145 -122 40 -13
288 -56 1211 -205 96 -16 360 -58 585 -95 226 -36 462 -80 525 -97 63 -16 212
-56 330 -88 158 -43 291 -70 500 -104 362 -58 327 -49 334 -93 3 -21 37 -270
76 -553 227 -1658 215 -1578 249 -1660 66 -154 193 -302 316 -367 217 -115
490 -72 745 118 166 123 223 192 923 1119 390 516 676 886 687 888 10 2 132
-16 271 -38 400 -65 1370 -223 1879 -306 256 -41 466 -77 468 -78 1 -2 -5 -36
-15 -77 -13 -57 -17 -122 -17 -284 0 -195 2 -218 28 -329 109 -464 388 -825
807 -1041 108 -56 292 -118 419 -141 145 -27 421 -25 562 4 475 99 863 393
1077 818 79 158 132 334 156 515 l6 46 210 -35 c137 -23 213 -32 220 -25 14
14 93 503 82 514 -4 4 -134 28 -287 53 -153 25 -280 47 -281 48 -1 2 -14 39
-29 83 -136 391 -453 731 -835 896 -208 89 -379 123 -616 123 -262 -1 -447
-45 -680 -160 -60 -30 -153 -85 -205 -122 -105 -75 -264 -228 -325 -315 -22
-31 -47 -56 -55 -57 -31 -1 -295 44 -304 52 -6 4 -1 8 11 8 38 0 203 59 297
106 99 50 149 83 240 153 32 25 563 591 1179 1256 617 666 1168 1261 1226
1323 l104 112 57 0 c115 0 199 47 244 137 22 44 21 147 -3 198 -20 45 -69 91
-118 112 -27 11 -808 13 -4710 13 l-4678 0 -43 -21z m1470 -3179 c439 -71 758
-123 1417 -231 201 -33 367 -61 369 -63 2 -2 -268 -363 -600 -803 -630 -834
-689 -906 -833 -1002 -104 -69 -173 -94 -265 -95 -65 -1 -82 3 -122 27 -55 32
-120 123 -143 200 -9 29 -51 315 -95 637 -44 322 -104 766 -135 987 -30 221
-55 404 -55 407 0 10 20 7 462 -64z"/>
</g>
</svg>
